{
    "asset" : {
        "generator" : "Khronos glTF Blender I/O v1.6.16",
        "version" : "2.0"
    },
    "scene" : 0,
    "scenes" : [
        {
            "extras" : {
                "uiListCollec" : [
                    {
                        "idx" : 0,
                        "val" : -3.1020621804600523e-07,
                        "color" : [
                            0.4656052887439728,
                            0.4656052887439728,
                            0.4656052887439728,
                            1
                        ]
                    },
                    {
                        "idx" : 1,
                        "val" : 13.345688819885254,
                        "color" : [
                            1,
                            1,
                            1,
                            1
                        ]
                    }
                ]
            },
            "name" : "Scene",
            "nodes" : [
                0
            ]
        }
    ],
    "nodes" : [
        {
            "mesh" : 0,
            "name" : "Texturizado"
        }
    ],
    "materials" : [
        {
            "doubleSided" : true,
            "name" : "solidcolor",
            "pbrMetallicRoughness" : {
                "baseColorFactor" : [
                    0.22452467679977417,
                    0.22452467679977417,
                    0.22452467679977417,
                    1
                ],
                "metallicFactor" : 0,
                "roughnessFactor" : 0.8636363744735718
            }
        }
    ],
    "meshes" : [
        {
            "name" : "Cylinder.009",
            "primitives" : [
                {
                    "attributes" : {
                        "POSITION" : 0,
                        "NORMAL" : 1,
                        "TEXCOORD_0" : 2
                    },
                    "indices" : 3,
                    "material" : 0
                },
                {
                    "attributes" : {
                        "POSITION" : 4,
                        "NORMAL" : 5,
                        "TEXCOORD_0" : 6
                    },
                    "indices" : 7,
                    "material" : 0
                }
            ]
        }
    ],
    "accessors" : [
        {
            "bufferView" : 0,
            "componentType" : 5126,
            "count" : 11435,
            "max" : [
                7.401543140411377,
                13.345688819885254,
                3.549689531326294
            ],
            "min" : [
                -7.789139270782471,
                -3.1020621804600523e-07,
                -2.850494384765625
            ],
            "type" : "VEC3"
        },
        {
            "bufferView" : 1,
            "componentType" : 5126,
            "count" : 11435,
            "type" : "VEC3"
        },
        {
            "bufferView" : 2,
            "componentType" : 5126,
            "count" : 11435,
            "type" : "VEC2"
        },
        {
            "bufferView" : 3,
            "componentType" : 5123,
            "count" : 11646,
            "type" : "SCALAR"
        },
        {
            "bufferView" : 4,
            "componentType" : 5126,
            "count" : 469,
            "max" : [
                7.401543140411377,
                13.345688819885254,
                3.549689531326294
            ],
            "min" : [
                -7.789139270782471,
                -3.1020621804600523e-07,
                -2.850494384765625
            ],
            "type" : "VEC3"
        },
        {
            "bufferView" : 5,
            "componentType" : 5126,
            "count" : 469,
            "type" : "VEC3"
        },
        {
            "bufferView" : 6,
            "componentType" : 5126,
            "count" : 469,
            "type" : "VEC2"
        },
        {
            "bufferView" : 7,
            "componentType" : 5123,
            "count" : 732,
            "type" : "SCALAR"
        }
    ],
    "bufferViews" : [
        {
            "buffer" : 0,
            "byteLength" : 137220,
            "byteOffset" : 0
        },
        {
            "buffer" : 0,
            "byteLength" : 137220,
            "byteOffset" : 137220
        },
        {
            "buffer" : 0,
            "byteLength" : 91480,
            "byteOffset" : 274440
        },
        {
            "buffer" : 0,
            "byteLength" : 23292,
            "byteOffset" : 365920
        },
        {
            "buffer" : 0,
            "byteLength" : 5628,
            "byteOffset" : 389212
        },
        {
            "buffer" : 0,
            "byteLength" : 5628,
            "byteOffset" : 394840
        },
        {
            "buffer" : 0,
            "byteLength" : 3752,
            "byteOffset" : 400468
        },
        {
            "buffer" : 0,
            "byteLength" : 1464,
            "byteOffset" : 404220
        }
    ],
    "buffers" : [
        {
            "byteLength" : 405684,
            "uri" : "gris.bin"
        }
    ]
}
