{
    "asset" : {
        "generator" : "Khronos glTF Blender I/O v1.6.16",
        "version" : "2.0"
    },
    "scene" : 0,
    "scenes" : [
        {
            "name" : "Scene",
            "nodes" : [
                0
            ]
        }
    ],
    "nodes" : [
        {
            "mesh" : 0,
            "name" : "pieza 2"
        }
    ],
    "meshes" : [
        {
            "name" : "Cylinder.001",
            "primitives" : [
                {
                    "attributes" : {
                        "POSITION" : 0,
                        "NORMAL" : 1
                    },
                    "indices" : 2
                }
            ]
        }
    ],
    "accessors" : [
        {
            "bufferView" : 0,
            "componentType" : 5126,
            "count" : 2458,
            "max" : [
                7.573594570159912,
                13.996150016784668,
                3.6384668350219727
            ],
            "min" : [
                -8.835038185119629,
                -0.00384945678524673,
                -3.871797800064087
            ],
            "type" : "VEC3"
        },
        {
            "bufferView" : 1,
            "componentType" : 5126,
            "count" : 2458,
            "type" : "VEC3"
        },
        {
            "bufferView" : 2,
            "componentType" : 5123,
            "count" : 3882,
            "type" : "SCALAR"
        }
    ],
    "bufferViews" : [
        {
            "buffer" : 0,
            "byteLength" : 29496,
            "byteOffset" : 0
        },
        {
            "buffer" : 0,
            "byteLength" : 29496,
            "byteOffset" : 29496
        },
        {
            "buffer" : 0,
            "byteLength" : 7764,
            "byteOffset" : 58992
        }
    ],
    "buffers" : [
        {
            "byteLength" : 66756,
            "uri" : "data:application/octet-stream;base64,"
        }
    ]
}
